<?xml version="1.0" encoding="UTF-8" standalone="no"?>
<!-- Created with Inkscape (http://www.inkscape.org/) -->

<svg
   width="300mm"
   height="300mm"
   viewBox="0 0 299.4 300"
   version="1.1"
   id="svg5"
   inkscape:export-filename="C:\Users\Kristof\Desktop\bitmapa.png"
   inkscape:export-xdpi="96"
   inkscape:export-ydpi="96"
   inkscape:version="1.1.2 (b8e25be833, 2022-02-05)"
   sodipodi:docname="rysunek.svg"
   xmlns:inkscape="http://www.inkscape.org/namespaces/inkscape"
   xmlns:sodipodi="http://sodipodi.sourceforge.net/DTD/sodipodi-0.dtd"
   xmlns="http://www.w3.org/2000/svg"
   xmlns:svg="http://www.w3.org/2000/svg">
  <sodipodi:namedview
     id="namedview7"
     pagecolor="#ffffff"
     bordercolor="#666666"
     borderopacity="1.0"
     inkscape:pageshadow="2"
     inkscape:pageopacity="0.0"
     inkscape:pagecheckerboard="false"
     inkscape:document-units="mm"
     showgrid="false"
     showguides="false"
     width="300mm"
     inkscape:zoom="1.4805976"
     inkscape:cx="447.11675"
     inkscape:cy="1007.7012"
     inkscape:window-width="1920"
     inkscape:window-height="1017"
     inkscape:window-x="-8"
     inkscape:window-y="-8"
     inkscape:window-maximized="1"
     inkscape:current-layer="layer1" />
  <defs
     id="defs2" />
  <g
     inkscape:groupmode="layer"
     id="layer3"
     inkscape:label="tło">
    <g
       id="g20653"
       transform="matrix(3.0079367,0,0,3.0079367,-0.39604717,-0.39685417)"
       inkscape:export-filename="C:\Users\Kristof\Desktop\bitmapa.png"
       inkscape:export-xdpi="96"
       inkscape:export-ydpi="96">
      <rect
         style="fill:#e4be9e;fill-opacity:1;stroke:none;stroke-width:0.187;stroke-miterlimit:4;stroke-dasharray:none;stroke-opacity:1"
         id="rect12919"
         width="70.524101"
         height="70.524101"
         x="35.377922"
         y="-35.191353"
         transform="rotate(45.000013)" />
    </g>
  </g>
  <g
     inkscape:label="baza"
     inkscape:groupmode="layer"
     id="layer1">
    <g
       id="g12603"
       transform="matrix(2.9667447,0,0,3.0039633,-0.81570277,4.0462189e-4)">
      <path
         id="rect868"
         style="fill:#19323c;fill-opacity:1;stroke:none;stroke-width:1.01195;stroke-opacity:1"
         transform="matrix(0.26458333,0,0,0.26458333,2.8422115,3.127367)"
         d="m 146.30859,-11.820312 -3.14648,28.892578 c 0.004,0.01391 0.0117,0.03035 0.0117,0.04883 0,0.04228 -0.002,0.08471 0,0.126953 0.005,0.09811 0.0161,0.195718 0.0293,0.292969 0.003,0.02037 0.0272,0.204064 0.0352,0.248046 0.008,0.04232 0.0183,0.08479 0.0273,0.126954 0.0193,0.08413 0.0219,0.09642 0.0332,0.162109 0.003,0.0057 0.004,0.0073 0.008,0.01758 0.003,0.006 0.01,0.01108 0.0117,0.01758 0.004,0.01444 0.0126,0.03024 0.0156,0.04492 2.8e-4,0.0012 -2e-4,0.0026 0,0.0039 0.006,0.008 0.0127,0.01543 0.0176,0.02344 0.006,0.03156 0.009,0.04356 0.01,0.05664 l 13.16211,27.175781 0.004,0.0059 c 0.002,0.0014 -0.001,0.0024 0.002,0.0039 0.003,0.0042 0.009,0.0086 0.01,0.0098 0.004,0.0045 0.008,0.0091 0.0117,0.01367 0.0174,0.01852 0.0299,0.03787 0.041,0.06055 0.004,0.003 0.009,0.0083 0.0117,0.01172 0.0162,0.01663 0.0275,0.03515 0.0391,0.05469 0.003,0.0045 0.0106,0.01966 0.0137,0.02344 0.0106,0.01323 0.0262,0.02464 0.0371,0.03711 l 0.0566,0.05664 c 0.009,0.0091 0.0166,0.01827 0.0215,0.02734 v 0.002 l 13.79102,13.988282 -8.80469,5.720703 c -0.0261,0.02759 -0.0532,0.05362 -0.0801,0.08008 v 0.002 c -0.008,0.04906 -0.0201,0.101674 -0.0371,0.15625 -0.1065,0.34526 -0.17366,0.699081 -0.30859,1.035156 -0.0117,0.0291 -0.0234,0.05595 -0.0352,0.08203 L 129.19531,312.67383 c 0.028,0.0806 0.0578,0.15979 0.0781,0.24219 0.0102,0.0415 0.0174,0.0831 0.0254,0.125 0.0166,0.16475 0.0851,0.32197 0.15429,0.4707 0.0174,0.0378 0.0381,0.0732 0.0547,0.11133 0.0295,0.0673 0.056,0.13754 0.084,0.20507 0.0321,0.0929 0.077,0.1804 0.11328,0.27149 0.12359,0.17832 0.24932,0.35576 0.37109,0.53516 0.0709,0.0981 0.12814,0.2043 0.18555,0.31054 l 47.77539,48.8086 c 0.0387,0.0178 0.0789,0.0321 0.11719,0.0508 1.47317,0.7205 0.6809,0.38707 1.84961,1.04297 0.34144,0.19162 0.68914,0.37152 1.03515,0.55468 v 0.004 c 0.006,0.004 0.0135,0.008 0.0195,0.0117 h 0.002 c 0.002,-3.4e-4 0.004,8e-5 0.006,0 0.007,-2.9e-4 0.0145,0.002 0.0234,0.006 0.0262,0.0117 0.0531,0.0237 0.0801,0.0332 0.001,4e-4 0.003,-3.9e-4 0.004,0 h 0.0801 c 10e-4,-7.6e-4 0.003,-8.5e-4 0.004,-0.002 0.0224,-0.0144 0.0194,-0.012 0.0391,-0.0215 0.0181,-0.009 0.0354,-0.019 0.0547,-0.0254 0.004,-0.001 0.008,-8.5e-4 0.0117,-0.002 0.007,-0.002 0.0143,-0.004 0.0215,-0.006 0.007,-0.002 0.0123,-0.005 0.0195,-0.008 0.002,-7.1e-4 0.004,-8.8e-4 0.006,-0.002 0.001,-4.8e-4 0.003,5.3e-4 0.004,0 0.005,-0.002 0.009,-0.005 0.0137,-0.008 0.33594,-0.17754 0.67455,-0.35313 1.00586,-0.53906 1.16871,-0.6559 0.37645,-0.32247 1.84961,-1.04297 0.0383,-0.0185 0.0785,-0.0329 0.11719,-0.0508 l 47.77539,-48.80859 c 0.0574,-0.1062 0.11468,-0.21244 0.18555,-0.31055 0.12176,-0.17938 0.2475,-0.35686 0.37109,-0.53516 0.0363,-0.0911 0.0811,-0.17861 0.11328,-0.27148 0.028,-0.0681 0.0545,-0.13777 0.084,-0.20508 0.0166,-0.0381 0.0374,-0.0735 0.0547,-0.11133 0.0692,-0.14873 0.13774,-0.30595 0.15429,-0.4707 0.008,-0.0419 0.0152,-0.0835 0.0254,-0.125 0.0204,-0.0824 0.05,-0.16162 0.0781,-0.24219 L 201.12109,66.789062 c -0.0117,-0.02608 -0.0234,-0.05281 -0.0352,-0.08203 -0.13493,-0.336075 -0.20152,-0.689896 -0.3086,-1.035156 -0.017,-0.05458 -0.0296,-0.107192 -0.0371,-0.15625 v -0.002 c -0.0268,-0.02646 -0.0542,-0.05264 -0.0801,-0.08008 l -8.80469,-5.720703 13.79101,-13.988282 v -0.002 c 0.005,-0.0091 0.012,-0.01827 0.0215,-0.02734 l 0.0566,-0.05664 c 0.011,-0.01247 0.0265,-0.02388 0.0371,-0.03711 0.003,-0.0038 0.013,-0.0189 0.0156,-0.02344 0.0113,-0.01965 0.023,-0.03806 0.0391,-0.05469 0.003,-0.0035 0.006,-0.0087 0.01,-0.01172 0.0113,-0.02268 0.0238,-0.04203 0.041,-0.06055 0.004,-0.0045 0.01,-0.0091 0.0137,-0.01367 9.9e-4,-0.0011 0.005,-0.0056 0.008,-0.0098 10e-4,-0.0016 -0.001,-0.0026 0.002,-0.0039 l 0.004,-0.0059 13.16211,-27.175781 c 9.1e-4,-0.01308 0.004,-0.0251 0.01,-0.05664 0.005,-0.008 0.0139,-0.01546 0.0195,-0.02344 2.1e-4,-0.0013 -2.7e-4,-0.0027 0,-0.0039 0.003,-0.0147 0.01,-0.0305 0.0137,-0.04492 0.002,-0.0065 0.009,-0.01153 0.0117,-0.01758 0.004,-0.01032 0.007,-0.01191 0.01,-0.01758 0.0113,-0.06569 0.0139,-0.07798 0.0332,-0.162109 0.009,-0.04216 0.0198,-0.08464 0.0273,-0.126954 0.008,-0.04404 0.0325,-0.227675 0.0352,-0.248046 0.0132,-0.09725 0.0244,-0.194856 0.0293,-0.292969 0.002,-0.04224 0,-0.08467 0,-0.126953 0,-0.01848 0.008,-0.03492 0.0117,-0.04883 l -3.14843,-28.892578 h -34.73047 -0.33985 z m 34.4043,377.277342 c 5.6e-4,0.003 -10e-5,0.005 0.002,0.008 2.4e-4,-0.003 -2.1e-4,-0.005 0,-0.008 z m 0.34961,0.10547 c 0.002,0.002 0.004,0.005 0.006,0.008 l 0.002,-0.002 c -0.002,-0.002 -0.005,-0.004 -0.008,-0.006 z" />
      <path
         style="fill:#ff0000;fill-opacity:1;stroke:none;stroke-width:0.283652px;stroke-linecap:butt;stroke-linejoin:miter;stroke-opacity:1"
         d="m 42.578488,84.030576 4.851986,-15.001568 5.256758,13.513249 4.185643,-26.126272"
         id="path9756" />
    </g>
  </g>
  <g
     inkscape:groupmode="layer"
     id="layer2"
     inkscape:label="nakładki" />
</svg>
